<?xml version="1.0" encoding="UTF-8" standalone="no"?>
<svg
xmlns="http://www.w3.org/2000/svg"
version="1.0"
width="1600" height="1600"
id="6-cube_t0.svg">
<g style="stroke:#000000;stroke-width:10.0;stroke-opacity:0.50;">
</g>

<g style="stroke:#000000;stroke-width:5.0;fill:#ffff00">
<circle cx="800.000" cy="800.000" r="400.2"/>
</g>

<g style="stroke:#000000;stroke-width:5.0;fill:#af00af">


<circle cx="1165.637" cy="1433.302" r="60.2"/>
<circle cx="1165.637" cy="166.698" r="60.2"/>
<circle cx="1433.302" cy="1165.637" r="60.2"/>
<circle cx="1433.302" cy="434.363" r="60.2"/>
<circle cx="1531.275" cy="800.000" r="60.2"/>
<circle cx="166.698" cy="1165.637" r="60.2"/>
<circle cx="166.698" cy="434.363" r="60.2"/>
<circle cx="434.363" cy="1433.302" r="60.2"/>
<circle cx="434.363" cy="166.698" r="60.2"/>
<circle cx="68.725" cy="800.000" r="60.2"/>
<circle cx="800.000" cy="1531.275" r="60.2"/>
<circle cx="800.000" cy="68.725" r="60.2"/>

</g>
<g style="stroke:#000000;stroke-width:5.0;fill:#ff0000">




<circle cx="1067.665" cy="1263.609" r="160.3"/>
<circle cx="1067.665" cy="336.391" r="160.3"/>
<circle cx="1263.609" cy="1067.665" r="160.3"/>
<circle cx="1263.609" cy="532.335" r="160.3"/>
<circle cx="1335.330" cy="800.000" r="160.3"/>
<circle cx="264.670" cy="800.000" r="160.3"/>
<circle cx="336.390" cy="1067.665" r="160.3"/>
<circle cx="336.390" cy="532.335" r="160.3"/>
<circle cx="532.335" cy="1263.609" r="160.3"/>
<circle cx="532.335" cy="336.391" r="160.3"/>
<circle cx="800.000" cy="1335.330" r="160.3"/>
<circle cx="800.000" cy="264.670" r="160.3"/>

</g>
<g style="stroke:#000000;stroke-width:5.0;fill:#af00af">




<circle cx="604.056" cy="800.000" r="30.2"/>
<circle cx="630.307" cy="702.028" r="30.2"/>
<circle cx="630.307" cy="897.972" r="30.2"/>
<circle cx="702.028" cy="630.307" r="30.2"/>
<circle cx="702.028" cy="969.693" r="30.2"/>
<circle cx="800.000" cy="604.056" r="30.2"/>
<circle cx="800.000" cy="995.944" r="30.2"/>
<circle cx="897.972" cy="630.307" r="30.2"/>
<circle cx="897.972" cy="969.693" r="30.2"/>
<circle cx="897.972" cy="969.693" r="30.2"/>
<circle cx="969.693" cy="702.028" r="30.2"/>
<circle cx="969.693" cy="897.972" r="30.2"/>
<circle cx="995.944" cy="800.000" r="30.2"/>


</g>
<g style="stroke:#000000;stroke-width:5.0;fill:#ff7f00">
<circle cx="1165.637" cy="897.972" r="80.2"/>
<circle cx="897.972" cy="1165.637" r="80.2"/>
<circle cx="1165.637" cy="702.028" r="80.2"/>
<circle cx="1067.665" cy="1067.665" r="80.2"/>
<circle cx="702.028" cy="1165.637" r="80.2"/>
<circle cx="532.335" cy="1067.665" r="80.2"/>
<circle cx="897.972" cy="434.363" r="80.2"/>
<circle cx="532.335" cy="532.335" r="80.2"/>
<circle cx="434.363" cy="897.972" r="80.2"/>
<circle cx="1067.665" cy="532.335" r="80.2"/>

<circle cx="702.028" cy="434.363" r="80.2"/>
<circle cx="434.363" cy="702.028" r="80.2"/>
</g>

</svg>
